<svg width="560" height="420" viewBox="0 0 560 420" fill="none" xmlns="http://www.w3.org/2000/svg">
  <rect x="20" y="290" width="520" height="10" rx="5" fill="#D73737"/>
  <circle cx="118" cy="172" r="24" fill="#FFE89B" stroke="#D73737" stroke-width="6"/>
  <ellipse cx="252" cy="208" rx="118" ry="82" fill="#FFF8D9" stroke="#D73737" stroke-width="6"/>
  <ellipse cx="336" cy="198" rx="24" ry="18" fill="#FFFFFF" stroke="#D73737" stroke-width="5"/>
  <path d="M140 166L110 146L142 136L140 166Z" fill="#D73737"/>
  <circle cx="126" cy="170" r="4" fill="#1E1E1E"/>
  <path d="M106 182C112 190 124 190 130 182" stroke="#D73737" stroke-width="4" stroke-linecap="round"/>
  <path d="M212 274C192 304 166 324 142 338" stroke="#D73737" stroke-width="8" stroke-linecap="round"/>
  <path d="M302 282C286 314 270 334 250 350" stroke="#D73737" stroke-width="8" stroke-linecap="round"/>
  <path d="M142 338H112" stroke="#D73737" stroke-width="8" stroke-linecap="round"/>
  <path d="M250 350H220" stroke="#D73737" stroke-width="8" stroke-linecap="round"/>
  <path d="M312 156C336 112 366 95 408 92" stroke="#D73737" stroke-width="8" stroke-linecap="round"/>
  <path d="M150 152C122 114 92 94 52 92" stroke="#D73737" stroke-width="8" stroke-linecap="round"/>
  <rect x="46" y="72" width="12" height="46" rx="6" fill="#D73737"/>
  <rect x="402" y="72" width="12" height="46" rx="6" fill="#D73737"/>
  <rect x="58" y="90" width="344" height="8" rx="4" fill="#D73737"/>
  <circle cx="34" cy="94" r="20" fill="#FFE6E6" stroke="#D73737" stroke-width="6"/>
  <circle cx="426" cy="94" r="20" fill="#FFE6E6" stroke="#D73737" stroke-width="6"/>
  <path d="M272 120L292 104" stroke="#D73737" stroke-width="6" stroke-linecap="round"/>
  <path d="M226 122L208 106" stroke="#D73737" stroke-width="6" stroke-linecap="round"/>
</svg>

